<svg xmlns="http://www.w3.org/2000/svg" width="680" height="400" viewBox="0 0 680 400" font-family="Georgia,serif">
<rect width="680" height="400" fill="#f6f4ef"/>
<text x="60" y="26" font-size="15" font-weight="bold" fill="#1b1e26">The mark in Paris falls to the gold point during Agadir, then recovers</text>
<text x="60" y="43" font-size="11" fill="#59606e">Le Temps daily Changes table, francs per 100 marks, 1911. Lower = mark weaker = French funds leaving Berlin.</text>
<line x1="60" y1="136.7" x2="650" y2="136.7" stroke="#2f4b7c" stroke-dasharray="5,4"/>
<text x="650" y="132.7" font-size="9.5" fill="#2f4b7c" text-anchor="end">par 123.46</text>
<line x1="60" y1="260.8" x2="650" y2="260.8" stroke="#8a3b2e" stroke-dasharray="3,3"/>
<text x="650" y="272.8" font-size="9.5" fill="#8a3b2e" text-anchor="end">lower gold point ~122.8</text>
<text x="54" y="320.2" font-size="9.5" fill="#59606e" text-anchor="end">122.5</text>
<text x="54" y="226.2" font-size="9.5" fill="#59606e" text-anchor="end">123.0</text>
<text x="54" y="132.2" font-size="9.5" fill="#59606e" text-anchor="end">123.5</text>
<line x1="502.5" y1="54" x2="502.5" y2="336" stroke="#999" stroke-dasharray="4,3"/>
<text x="502.5" y="50" font-size="9" fill="#666" text-anchor="middle">4 Nov convention</text>
<polyline points="60.0,93.9 158.3,129.2 256.7,270.2 355.0,246.7 453.3,281.9 551.7,199.7 650.0,152.7" fill="none" stroke="#1b1e26" stroke-width="2"/>
<circle cx="60.0" cy="93.9" r="3.5" fill="#1b1e26"/>
<text x="60.0" y="352" font-size="9.5" fill="#333" text-anchor="middle">Aug 5</text>
<circle cx="158.3" cy="129.2" r="3.5" fill="#1b1e26"/>
<text x="158.3" y="352" font-size="9.5" fill="#333" text-anchor="middle">Sep 2</text>
<circle cx="256.7" cy="270.2" r="3.5" fill="#8a3b2e"/>
<text x="256.7" y="352" font-size="9.5" fill="#333" text-anchor="middle">Sep 16</text>
<circle cx="355.0" cy="246.7" r="3.5" fill="#1b1e26"/>
<text x="355.0" y="352" font-size="9.5" fill="#333" text-anchor="middle">Oct 14</text>
<circle cx="453.3" cy="281.9" r="3.5" fill="#8a3b2e"/>
<text x="453.3" y="352" font-size="9.5" fill="#333" text-anchor="middle">Oct 21</text>
<circle cx="551.7" cy="199.7" r="3.5" fill="#1b1e26"/>
<text x="551.7" y="352" font-size="9.5" fill="#333" text-anchor="middle">Nov 11</text>
<circle cx="650.0" cy="152.7" r="3.5" fill="#1b1e26"/>
<text x="650.0" y="352" font-size="9.5" fill="#333" text-anchor="middle">Nov 25</text>
</svg>